<svg version="1.2" xmlns="http://www.w3.org/2000/svg" viewBox="0 0 418 418" width="30" height="30">
	<title>emissary-ingress-logo</title>
	<defs>
		<clipPath clipPathUnits="userSpaceOnUse" id="cp1">
			<path d="m208.93 417.93c-115.54 0-208.93-93.39-208.93-208.93 0-115.54 93.39-208.93 208.93-208.93 115.54 0 208.94 93.39 208.94 208.93 0 115.54-93.4 208.93-208.94 208.93z"/>
		</clipPath>
	</defs>
	<style>
		.s0 { fill: #ffffff } 
		.s1 { fill: #272733 } 
	</style>
	<g id="Clip-Path" clip-path="url(#cp1)">
		<g>
			<path class="s0" d="m417.9 209c0-111.8-97.2-208.9-209-208.9-111.8 0-208.9 97.1-208.9 208.9 0 111.8 97.1 208.9 208.9 208.9 111.8 0 209-97.1 209-208.9z"/>
			<path class="s1" d="m209.1 87.2c-77.1 0-152.2 45.6-152.2 137 0 55.5 28.2 75.8 28.2 112.2 0 36.5-4.9 32.4-4.9 32.4 0 0 45.5 45.2 128.9 45.2 83.4 0 127.7-45.2 127.7-45.2 0 0-8.5 4.1-8.5-28.3 0-36.5 33-64.9 33-116.3 0-91.4-75.1-137-152.2-137z"/>
			<path class="s0" d="m240.9 244.9l-29 58.1v-71.9c13.8 0 29 13.8 29 13.8z"/>
			<path class="s0" d="m181.4 244.9c0 0 16.6-13.8 30.5-13.8v71.9z"/>
			<path class="s0" d="m289.5 231.4c-23 13-65.1-17.3-65.1-17.3 11.7-11.5 71-69.2 83.6-47.2 12.9 22.6 4.6 51.5-18.5 64.5z"/>
			<path class="s0" d="m132.4 230.2c-22.9-13.3-30.7-42.3-17.5-64.7 12.9-21.9 71.3 36.7 82.8 48.4 0 0-42.5 29.7-65.3 16.3z"/>
			<path fill-rule="evenodd" class="s1" d="m263 218.2c-8.6 0-15.7-7-15.7-15.7 0-8.7 7.1-15.7 15.7-15.7 8.7 0 15.7 7 15.7 15.7 0 8.7-7 15.7-15.7 15.7z"/>
			<path fill-rule="evenodd" class="s1" d="m161 218.2c-8.7 0-15.7-7-15.7-15.7 0-8.7 7-15.7 15.7-15.7 8.6 0 15.7 7 15.7 15.7 0 8.7-7.1 15.7-15.7 15.7z"/>
			<path class="s1" d="m276.9 100.4c13.2-9.2 21.6-22.1 19.4-39.9-21.4-3.9-47.4 18.9-63.7 32.4-3-0.1-8-0.4-11-0.4 22.1-24.6 43-54 19.3-54.3-17.8-0.2-32.2 23.6-44.2 47.2 10.4-27.2 16.2-56.7-13.9-51.6-29.8 5.1-14.3 38.4-5.5 64.1z"/>
			<path fill-rule="evenodd" class="s1" d="m208.7 419.4c-116.4 0-210.5-94.2-210.5-210.6 0-116.4 94.1-210.6 210.5-210.6 116.5 0 210.6 94.2 210.6 210.6 0 116.4-94.1 210.6-210.6 210.6zm194.4-210.6c0-107.5-86.9-194.4-194.4-194.4-107.5 0-194.3 86.9-194.3 194.4 0 107.5 86.8 194.4 194.3 194.4 107.5 0 194.4-86.9 194.4-194.4z"/>
		</g>
	</g>
	<path class="s1" d="m2453.7 690.7h24.9c-0.7-27.4-24.9-47.3-59.7-47.3-34.3 0-60.6 19.7-60.6 49.1 0 23.8 17.1 37.8 44.5 45.2l20.2 5.5c18.3 4.8 32.4 10.8 32.4 26 0 16.7-15.9 27.7-37.9 27.7-19.8 0-36.4-8.8-37.9-27.4h-25.9c1.7 31 25.7 50.1 64 50.1 40.1 0 63.3-21.2 63.3-50.1 0-30.8-27.5-42.8-49.2-48.1l-16.7-4.3c-13.4-3.5-31.1-9.7-31.1-26.1 0-14.5 13.3-25.3 34.4-25.3 19.6 0 33.5 9.2 35.3 25z"/>
</svg>